<svg width="17" height="17" viewBox="0 0 17 17" fill="none" xmlns="http://www.w3.org/2000/svg">
<path fill-rule="evenodd" clip-rule="evenodd" d="M6.7832 13.3793H3.11654C2.38016 13.3793 1.7832 12.7824 1.7832 12.046V4.04601C1.7832 3.30963 2.38016 2.71268 3.11654 2.71268H6.7832C7.601 2.71268 8.32707 3.10535 8.7832 3.71243C9.23934 3.10535 9.9654 2.71268 10.7832 2.71268H14.4499C15.1863 2.71268 15.7832 3.30963 15.7832 4.04601V12.046C15.7832 12.7824 15.1863 13.3793 14.4499 13.3793H10.7832C10.1891 13.3793 9.6756 13.7247 9.43274 14.2257C9.30627 14.4865 9.073 14.7127 8.7832 14.7127C8.4934 14.7127 8.26014 14.4865 8.13367 14.2257C7.8908 13.7247 7.37734 13.3793 6.7832 13.3793ZM2.7832 4.04601C2.7832 3.86192 2.93244 3.71268 3.11654 3.71268H6.7832C7.6116 3.71268 8.2832 4.38425 8.2832 5.21268V12.8791C7.8654 12.5653 7.34601 12.3793 6.7832 12.3793H3.11654C2.93244 12.3793 2.7832 12.2301 2.7832 12.046V4.04601ZM10.7832 3.71268C9.9548 3.71268 9.2832 4.38425 9.2832 5.21268V12.8791C9.701 12.5653 10.2204 12.3793 10.7832 12.3793H14.4499C14.6339 12.3793 14.7832 12.2301 14.7832 12.046V4.04601C14.7832 3.86192 14.6339 3.71268 14.4499 3.71268H10.7832Z" fill="#0D6464"/>
</svg>
