<svg width="32" height="32" viewBox="0 0 32 32" fill="none" xmlns="http://www.w3.org/2000/svg">
<path d="M9.40114 7.51485C8.88044 6.99415 8.03622 6.99415 7.51552 7.51485C6.99483 8.03555 6.99483 8.87977 7.51552 9.40047L14.1152 16.0001L7.51552 22.5998C6.99483 23.1205 6.99483 23.9647 7.51552 24.4854C8.03622 25.0061 8.88044 25.0061 9.40114 24.4854L16.0008 17.8858L22.6005 24.4854C23.1212 25.0061 23.9654 25.0061 24.4861 24.4854C25.0068 23.9647 25.0068 23.1205 24.4861 22.5998L17.8864 16.0001L24.4861 9.40047C25.0068 8.87977 25.0068 8.03555 24.4861 7.51485C23.9654 6.99415 23.1212 6.99415 22.6005 7.51485L16.0008 14.1145L9.40114 7.51485Z" fill="#475367"/>
</svg>
