<svg width="48" height="49" viewBox="0 0 48 49" fill="none" xmlns="http://www.w3.org/2000/svg">
<rect y="0.521576" width="48" height="48" rx="24" fill="#E7FFFF"/>
<path fill-rule="evenodd" clip-rule="evenodd" d="M35 15.951C35 14.5621 33.6191 13.5961 32.3144 14.0722L25.0165 16.7353L17.6882 17.3083C15.6063 17.4711 14 19.208 14 21.2962V22.747C14 24.8352 15.6063 26.572 17.6882 26.7348L18.1008 26.7671L18.8045 32.8805C18.9777 34.3856 20.252 35.5216 21.7671 35.5216C23.5542 35.5216 24.9401 33.9604 24.7282 32.1858L24.1375 27.2391L25.0165 27.3079L32.3144 29.971C33.6191 30.4471 35 29.481 35 28.0922V15.951ZM17.8441 19.3022L24.2308 18.8028V25.2403L17.8441 24.7409C16.8032 24.6595 16 23.7911 16 22.747V21.2962C16 20.2521 16.8032 19.3836 17.8441 19.3022ZM33 28.0922L26.2308 25.622V18.4212L33 15.951L33 28.0922ZM20.7914 32.6517L20.1323 26.926L22.1043 27.0802L22.7423 32.423C22.8121 33.0074 22.3557 33.5216 21.7671 33.5216C21.2681 33.5216 20.8484 33.1474 20.7914 32.6517Z" fill="#344054"/>
</svg>
