<svg width="36" height="36" viewBox="0 0 36 36" fill="none" xmlns="http://www.w3.org/2000/svg">
<rect x="0.697266" y="0.738037" width="35.1113" height="35.1113" rx="17.5557" transform="rotate(-0.0436304 0.697266 0.738037)" fill="#1A1C1F"/>
<circle cx="29.8288" cy="6.70088" r="4.38892" transform="rotate(-0.0436304 29.8288 6.70088)" fill="#FF4423"/>
<path d="M18.3028 10.6437C15.3974 10.6459 13.0379 13.009 13.0402 15.9144L13.0421 18.4512C13.0425 18.9867 12.8149 19.8032 12.5431 20.2598L11.535 21.9372C10.9125 22.9734 11.3435 24.123 12.4849 24.5084C16.2691 25.7695 20.3508 25.7664 24.1331 24.4995C25.195 24.1476 25.6592 22.892 25.0792 21.9269L24.0684 20.2511C23.8047 19.7948 23.5759 18.9787 23.5755 18.4432L23.5736 15.9064C23.5714 13.0097 21.1995 10.6415 18.3028 10.6437Z" stroke="#FFFFFE" stroke-width="1.31667" stroke-miterlimit="10" stroke-linecap="round"/>
<path d="M19.9269 10.8971C19.6547 10.8183 19.3738 10.757 19.0841 10.7221C18.2413 10.6174 17.4338 10.6795 16.6791 10.8995C16.9331 10.2498 17.5648 9.79284 18.3021 9.79228C19.0395 9.79172 19.6718 10.2477 19.9269 10.8971Z" stroke="#FFFFFE" stroke-width="1.31667" stroke-miterlimit="10" stroke-linecap="round" stroke-linejoin="round"/>
<path d="M20.9474 24.8179C20.9485 26.2662 19.7644 27.4521 18.316 27.4532C17.5962 27.4538 16.9289 27.1559 16.4545 26.6822C15.9802 26.2086 15.6812 25.5417 15.6807 24.8219" stroke="#FFFFFE" stroke-width="1.31667" stroke-miterlimit="10"/>
</svg>
