<svg width="36" height="36" viewBox="0 0 36 36" fill="none" xmlns="http://www.w3.org/2000/svg">
<rect x="0.541504" y="0.775452" width="35.1113" height="35.1113" rx="17.5557" transform="rotate(-0.0436304 0.541504 0.775452)" fill="#1A1C1F"/>
<circle cx="29.673" cy="6.7383" r="4.38892" transform="rotate(-0.0436304 29.673 6.7383)" fill="#FF4423"/>
<path fill-rule="evenodd" clip-rule="evenodd" d="M18.5474 9.65332C19.9674 9.65332 21.3821 10.0036 22.639 10.6663C26.9184 12.9243 28.5641 18.2429 26.3077 22.5237C24.7686 25.4428 21.7384 27.209 18.5374 27.209C17.912 27.209 17.2805 27.1417 16.652 27.0025C16.298 26.9236 16.0746 26.5726 16.1526 26.2184C16.2307 25.8643 16.5809 25.6423 16.9372 25.7189C20.2063 26.4458 23.5813 24.8768 25.1451 21.9105C27.0637 18.2715 25.6646 13.7486 22.026 11.8293C20.9577 11.2656 19.7549 10.9679 18.5467 10.9679H18.5381C14.4249 10.9679 11.0778 14.3154 11.0778 18.43C11.0763 19.6286 11.3685 20.8217 11.9227 21.8819L12.0912 22.2113C12.2976 22.5979 12.3432 23.0781 12.2095 23.5127C12.0247 23.9999 11.8709 24.4739 11.7441 24.9456C12.2373 24.7971 12.8395 24.5783 13.2747 24.4198L13.4533 24.3556C13.7911 24.2296 14.1706 24.4082 14.2943 24.75C14.418 25.091 14.241 25.4683 13.9001 25.5913L13.7238 25.6555L13.6938 25.6664C13.0458 25.9012 12.1732 26.2174 11.581 26.3499C11.53 26.3607 11.4751 26.3677 11.4249 26.3661C11.0214 26.3661 10.7756 26.203 10.6403 26.0653C10.4323 25.8542 10.3334 25.558 10.345 25.1853C10.3465 25.1428 10.3519 25.0987 10.362 25.0562C10.5181 24.3912 10.7214 23.7277 10.9673 23.0851C10.985 23.0225 10.9742 22.9088 10.924 22.8137L10.7547 22.485C10.1061 21.2432 9.76213 19.8381 9.76368 18.4292C9.76368 13.5901 13.6999 9.65332 18.5374 9.65332H18.5474ZM13.629 18.4304C13.629 17.8543 14.0967 17.3865 14.6726 17.3865C15.2485 17.3865 15.7162 17.8543 15.7162 18.4304C15.7162 19.0057 15.2485 19.4736 14.6726 19.4736C14.0967 19.4736 13.629 19.0057 13.629 18.4304ZM19.5813 18.4301C19.5813 17.8548 19.1136 17.3862 18.5378 17.3862C17.9619 17.3862 17.4942 17.8548 17.4942 18.4301C17.4942 19.0054 17.9619 19.474 18.5378 19.474C19.1136 19.474 19.5813 19.0054 19.5813 18.4301ZM22.4029 17.3862C22.9788 17.3862 23.4465 17.8548 23.4465 18.4301C23.4465 19.0054 22.9788 19.474 22.4029 19.474C21.827 19.474 21.3593 19.0054 21.3593 18.4301C21.3593 17.8548 21.827 17.3862 22.4029 17.3862Z" fill="#FFFFFE"/>
</svg>
