<svg width="88" height="35" viewBox="0 0 88 35" fill="none" xmlns="http://www.w3.org/2000/svg">
<path fill-rule="evenodd" clip-rule="evenodd" d="M36.9778 9.1817C39.3341 9.14639 41.4905 9.76202 43.2491 11.1972C44.7812 9.99089 46.8053 9.39291 48.7195 9.21935C50.9549 9.0168 53.7176 9.3466 55.6334 10.5935C55.8013 10.7028 55.9639 10.8184 56.1205 10.9403C56.2884 10.7894 56.4643 10.6458 56.6482 10.5109C58.3165 9.28464 60.5469 8.94551 62.568 8.91519C64.2334 8.89054 66.2358 9.00081 67.7666 9.71405C68.0694 9.8553 68.3643 10.0132 68.6468 10.1904C69.3094 9.76502 70.0413 9.4592 70.8045 9.24367L71.0227 7.98208L68.6474 6.62455C68.0041 6.2571 67.666 5.57417 67.7643 4.83993C67.8622 4.10537 68.3673 3.53504 69.0845 3.34915L77.9106 1.06117C78.409 0.931909 78.8864 1.00786 79.3198 1.2857L86.1991 5.68943C86.8157 6.0842 87.1192 6.77046 86.9956 7.49237C86.8723 8.21394 86.3583 8.76062 85.6454 8.92785L85.1067 9.05444C85.1024 9.16704 85.09 9.27864 85.0697 9.38825C85.1723 9.73404 85.1983 10.1032 85.1427 10.4659C85.2989 10.7738 85.3909 11.1126 85.4138 11.502C85.4425 11.9874 85.3372 12.4798 85.1187 12.9125C85.157 13.5415 85.0937 14.1671 85.0654 14.8117L84.8488 19.7305C84.8085 20.6456 84.8349 21.61 84.5857 22.4975C84.5124 22.7587 84.3881 22.9905 84.2239 23.1834C84.0293 24.9384 83.1658 26.4428 81.801 27.6518C79.9407 29.2995 77.3989 29.8029 74.9833 29.8388C73.7567 29.8572 72.5045 29.7552 71.3092 29.4491C70.2941 29.9728 69.0075 30.097 67.9258 29.9231C66.9094 29.7595 65.9853 29.3281 65.2977 28.6429C64.9376 28.8711 64.5615 29.075 64.1687 29.2515C63.0797 29.7406 61.9241 29.9894 60.7294 30.0074C59.0881 30.0317 57.4953 29.6869 56.1591 28.7801C54.4165 29.9125 52.2621 30.2826 50.2017 30.3132C47.969 30.3465 45.64 29.9764 43.7508 28.7138C43.6405 28.6402 43.5323 28.5639 43.4257 28.4856L43.3204 28.5629C41.6827 29.7419 39.7322 30.205 37.7384 30.2346C35.3151 30.2709 33.0411 29.7099 31.2402 28.2638L31.1323 28.3437C29.4946 29.5227 27.5437 29.9854 25.5502 30.0154C22.6453 30.0587 19.9565 29.2455 18.043 27.0838C18.1399 27.9216 18.2409 28.7598 18.3521 29.596C18.4134 30.0554 18.4744 30.6757 18.5837 31.1487C18.6163 31.221 18.6446 31.297 18.6686 31.3753C18.8961 32.1278 18.6253 32.9074 17.98 33.3564C16.8807 34.1213 15.2257 34.3518 13.8555 34.3022C12.4669 34.6483 10.3699 34.2212 9.44573 33.3474C9.29482 33.2082 9.16756 33.0449 9.06896 32.8634C8.75181 32.2804 8.79045 31.5968 9.12093 31.0674C9.19755 30.63 9.23752 30.0854 9.27583 29.7062C9.3801 28.6778 9.46172 27.6455 9.53768 26.6144C9.63062 25.3601 9.71324 24.1049 9.78986 22.8496C9.78387 22.1061 9.80585 21.3942 9.92978 20.6609C9.95776 19.4476 9.78054 18.0838 9.6143 16.8908C9.40342 15.3794 9.14025 13.8443 8.83509 12.3365L2.88794 12.6843C2.36325 12.7149 1.89986 12.5397 1.52674 12.1689C1.15397 11.7985 0.975405 11.3361 1.00272 10.8111C1.18528 7.29548 2.56546 5.08346 6.30725 4.86459L24.305 3.81187C24.87 3.77889 25.3697 3.98644 25.7448 4.41019C26.1195 4.83394 26.2651 5.3553 26.1639 5.91197C25.9803 6.9207 25.8504 8.00839 25.4539 8.96983C27.657 9.05511 29.6625 9.74337 31.2998 11.1799C32.8975 9.87263 34.8194 9.21368 36.9778 9.1817Z" stroke="#3AAFE4" stroke-width="0.278857" stroke-miterlimit="2.613"/>
<path fill-rule="evenodd" clip-rule="evenodd" d="M11.6646 31.9197C13.1164 31.9723 14.298 31.967 15.8311 31.7944C15.8004 31.9447 15.8601 32.4054 15.7821 32.5103C15.8001 32.7465 15.8111 32.7562 15.6242 32.8825C14.7607 33.4654 13.646 33.8392 12.7123 33.5074C12.4837 33.4851 11.9051 33.1286 11.7402 32.9694C11.7252 32.7229 11.7328 32.2019 11.6646 31.9197Z" fill="#433E93"/>
<path d="M23.8354 14.8177H23.8358C24.024 14.5389 24.2765 14.2974 24.5867 14.1182C25.696 13.4759 27.1235 13.8673 27.7748 14.9923C28.4264 16.1173 28.0549 17.5501 26.9456 18.1924C26.6148 18.384 26.2563 18.4836 25.8982 18.4992H25.8929C25.8689 18.5002 25.8452 18.5009 25.8213 18.5012C19.7432 18.6955 20.5537 19.5233 23.8354 14.8177ZM27.1765 24.4574C26.7227 24.8495 26.1381 25.0367 25.4452 25.047C24.4357 25.062 23.5819 24.7096 22.8947 23.9897C22.2021 23.2694 21.8323 22.2547 21.7806 20.9451C24.7592 20.9008 29.9592 21.2619 32.2128 19.8358C32.6552 18.2184 32.2361 15.008 30.6611 13.2563C29.1973 11.6346 27.2254 10.8424 24.7449 10.8797C22.5329 10.9127 20.7136 11.7239 19.2928 13.319C17.872 14.9084 17.1794 17.0934 17.221 19.8641C17.2557 22.1891 17.8373 24.1029 18.961 25.6114C20.3798 27.4913 22.5472 28.4094 25.4518 28.3661C27.2827 28.3388 28.8122 27.8987 30.0181 27.0302C31.0375 26.2963 32.3647 24.4297 32.5803 23.2841C28.8455 22.3466 28.502 23.3081 27.1765 24.4574Z" fill="#3AAFE4"/>
<path d="M36.0228 14.9241C36.2113 14.6452 36.4635 14.4037 36.7736 14.2245C37.883 13.5822 39.3105 13.9736 39.9618 15.0986C40.6134 16.2236 40.2419 17.6565 39.1326 18.2987C38.8021 18.4903 38.4433 18.5899 38.0852 18.6056H38.0799C38.0559 18.6066 38.0322 18.6072 38.0082 18.6076C31.9302 18.8018 32.7407 19.6296 36.0228 14.9241ZM39.3634 24.5637C38.91 24.9558 38.3251 25.143 37.6325 25.1534C36.6231 25.1683 35.7689 24.8159 35.0816 24.096C34.389 23.3757 34.0193 22.361 33.9676 21.0514C36.9465 21.0071 42.1461 21.3683 44.3998 19.9421C44.8425 18.3247 44.4231 15.1143 42.8481 13.3627C41.3846 11.741 39.4124 10.9487 36.9319 10.9861C34.7199 11.019 32.9006 11.8302 31.4798 13.4253C30.0589 15.0147 29.3667 17.1997 29.408 19.9704C29.4426 22.2954 30.0246 24.2093 31.148 25.7177C32.5668 27.5976 34.7342 28.5157 37.6391 28.4724C39.47 28.4451 40.9991 28.005 42.2054 27.1365C43.2248 26.4026 44.552 24.5361 44.7676 23.3904C41.0325 22.453 40.689 23.4144 39.3634 24.5637Z" fill="#644A9B"/>
<path d="M42.0098 23.6689C45.9125 22.291 46.4495 23.8667 47.6234 24.8525C48.7528 25.8006 51.4662 25.6813 52.6282 24.8152C53.0103 24.514 53.3211 24.0963 53.1902 23.6199C52.3323 20.4954 42.6064 22.6208 42.5138 16.4328C42.4921 14.978 43.0485 13.7504 44.1771 12.7453C45.3061 11.7402 47.0708 11.2199 49.4707 11.1842C51.758 11.1499 53.4657 11.5004 54.5883 12.23C55.711 12.9649 56.4952 14.0595 56.9359 15.519C55.2992 15.9048 53.7378 16.042 51.749 14.8611C50.674 14.2224 48.1022 14.2258 47.0881 14.8984C46.7533 15.1342 46.5914 15.4374 46.5967 15.8025C46.6014 16.1193 46.7506 16.3855 47.0491 16.6014C47.4559 16.8909 48.8424 17.2833 51.213 17.785C53.5833 18.2867 55.2413 18.917 56.1874 19.6816C57.1278 20.4518 57.6059 21.5455 57.6272 22.9523C57.6499 24.4824 57.0309 25.8129 55.764 26.9326C54.5024 28.0526 52.6152 28.6339 50.1026 28.6712C47.826 28.7056 46.0151 28.2705 44.6699 27.3723C43.33 26.4742 42.4415 25.2413 42.0098 23.6689Z" fill="#ED3491"/>
<path fill-rule="evenodd" clip-rule="evenodd" d="M69.4507 4.94157L78.524 2.58929L85.5961 7.11662L76.8526 9.17074L69.4507 4.94157Z" fill="#3D418F"/>
<path fill-rule="evenodd" clip-rule="evenodd" d="M81.8548 9.14766L81.3258 12.7092C80.1145 10.4446 75.1295 9.89156 72.4277 10.3393L72.9907 7.08388C73.4598 4.37282 82.8929 5.53513 81.8548 9.14766Z" fill="#F5863C"/>
<path d="M61.7099 25.168C61.6872 25.1757 61.6649 25.183 61.6419 25.1904L61.6369 25.192C61.2944 25.298 60.923 25.325 60.5476 25.2563C59.2863 25.0258 58.4538 23.8019 58.688 22.5229C58.9219 21.2444 60.1338 20.3942 61.3947 20.6251C61.7472 20.6897 62.066 20.8316 62.3375 21.0308C67.0137 24.3542 67.4975 23.3015 61.7099 25.168ZM70.4657 27.1922C69.5509 25.0338 69.6905 24.048 69.6648 22.3121L69.6582 19.6197C69.6235 19.6003 70.1819 14.3641 68.5322 12.5692C68.1331 12.1394 67.6017 11.771 66.9408 11.4618C65.9674 11.0091 64.4929 10.8002 62.5224 10.8299C60.3533 10.8622 58.7213 11.2786 57.6323 12.0788C56.5436 12.8793 55.783 14.0989 55.3563 15.7376C59.7584 17.1121 62.2549 11.8256 65.6575 14.6469C67.3982 16.0897 62.4548 17.8657 61.0259 18.1555C59.5002 18.4737 58.3352 18.8351 57.53 19.2389C56.7198 19.6433 56.1002 20.2216 55.6601 20.9642C55.22 21.7118 55.0072 22.5579 55.0212 23.4977C55.0428 24.9259 55.5542 26.0998 56.5563 27.014C57.558 27.9334 58.9182 28.3805 60.6308 28.3548C61.6026 28.3402 62.5124 28.1386 63.3662 27.7555C64.2197 27.3721 65.0166 26.8071 65.7572 26.0549C65.7908 26.1348 65.8471 26.3057 65.9207 26.5679C66.5723 28.6796 69.6608 28.665 70.7455 27.7845C70.6443 27.584 70.551 27.3867 70.4657 27.1922Z" fill="#FFCB00"/>
<path d="M66.792 23.184C70.6947 21.8061 71.2317 23.3819 72.4057 24.3676C73.535 25.3157 76.2484 25.1965 77.4104 24.3303C77.7925 24.0292 78.103 23.6114 77.9724 23.135C77.1142 20.0105 67.3886 22.1359 67.296 15.9479C67.2744 14.4928 67.8304 13.2655 68.9594 12.2604C70.0884 11.2554 71.8527 10.735 74.2529 10.699C76.5402 10.6651 78.2479 11.0155 79.3702 11.7451C80.4929 12.48 81.2771 13.5747 81.7178 15.0341C80.0811 15.4199 78.5201 15.5572 76.5312 14.3759C75.4562 13.7376 72.8844 13.7409 71.87 14.4135C71.5355 14.6494 71.3733 14.9525 71.379 15.3176C71.3836 15.6344 71.5325 15.9006 71.8313 16.1165C72.2381 16.4057 73.6243 16.7984 75.9949 17.3001C78.3655 17.8018 80.0235 18.4321 80.9693 19.1967C81.9101 19.9669 82.3881 21.0606 82.4091 22.4671C82.4321 23.9975 81.8128 25.3281 80.5459 26.4477C79.2846 27.5674 77.3974 28.1491 74.8849 28.1864C72.6082 28.2203 70.7973 27.7856 69.4521 26.8875C68.1122 25.989 67.2237 24.7564 66.792 23.184Z" fill="#3C489A"/>
<path fill-rule="evenodd" clip-rule="evenodd" d="M83.5309 10.894L82.5365 10.8511C81.7896 11.3078 81.9438 12.1513 82.3459 12.4455C82.1071 13.0248 82.1254 14.1814 82.0951 14.8747L81.8692 20.0037C81.8479 20.487 81.71 22.0861 81.9155 22.4162L82.1311 22.4096L82.1481 22.194L82.195 22.3206C82.1994 22.3446 82.202 22.3943 82.205 22.4279L82.6081 22.4466L82.6551 21.9112C82.7031 22.0281 82.6591 22.3816 82.7747 22.4549L82.9749 22.4635C82.9423 21.7763 82.8433 17.0371 83.0299 16.2209C83.0529 16.1186 83.0615 16.1203 83.1028 16.0936C83.1235 16.13 83.1112 16.096 83.1255 16.1543L83.1315 16.8738C83.1151 17.8683 82.9423 21.9932 83.1611 22.3543C83.348 21.6893 83.3334 20.6513 83.3653 19.9247L83.5879 14.868C83.6209 14.1165 83.7374 13.18 83.5489 12.4944C83.7624 12.3705 83.9707 12.0457 83.9473 11.6543C83.9183 11.1576 83.5726 10.9937 83.5309 10.894Z" fill="#3D418F"/>
<path fill-rule="evenodd" clip-rule="evenodd" d="M82.5295 10.4756L83.5529 10.5183C83.8298 10.1515 83.6805 9.66944 83.3411 9.52686L82.8167 9.50354C82.6441 9.55151 82.4972 9.70242 82.4336 9.89398C82.3673 10.0945 82.403 10.3654 82.5295 10.4756Z" fill="#3C489A"/>
<path fill-rule="evenodd" clip-rule="evenodd" d="M82.8199 9.38252L83.3459 9.40517C83.5105 9.34354 83.6581 9.12867 83.6251 8.87348C83.5908 8.60431 83.4546 8.57033 83.279 8.43774C83.3396 7.87208 84.4669 6.79804 83.784 6.55385C83.7237 6.5322 83.6564 6.52654 83.5918 6.53353C82.7406 6.62715 82.9672 7.78779 82.9705 8.41942C82.8013 8.53435 82.633 8.56134 82.5824 8.8465C82.5391 9.09136 82.6643 9.31356 82.8199 9.38252Z" fill="#3D418F"/>
<path fill-rule="evenodd" clip-rule="evenodd" d="M82.5366 10.8561L83.531 10.8991L83.5537 10.5216L82.5303 10.479C82.5569 10.5796 82.5379 10.7309 82.5366 10.8561Z" fill="#F3D67C"/>
<path fill-rule="evenodd" clip-rule="evenodd" d="M82.8174 9.50414L83.3414 9.52746L83.3464 9.4062L82.8201 9.38354C82.856 9.43885 82.8257 9.37788 82.851 9.4575C82.8374 9.47349 82.843 9.49048 82.8174 9.50414Z" fill="#F3D67C"/>
<path fill-rule="evenodd" clip-rule="evenodd" d="M11.0002 12.5595C11.2641 12.5399 11.4233 12.2204 11.6875 12.0075C11.905 11.8323 12.1575 11.5984 12.4011 11.4915C13.4235 10.4691 14.7763 11.5858 15.8191 12.9386C15.7934 11.8616 15.8943 9.63893 15.7677 9.34177C14.8596 7.21369 13.4831 6.95018 12.3594 8.09783C12.0933 8.16779 11.1625 9.27147 10.9493 9.83448C10.896 10.7173 11.1202 11.5515 11.0002 12.5595Z" fill="#3C489A"/>
<path fill-rule="evenodd" clip-rule="evenodd" d="M10.2998 11.1056C10.2998 11.1056 11.9778 18.8604 11.584 21.6417L13.9963 21.7143C13.9963 21.7143 13.6418 11.6163 12.9426 10.5236C12.9426 10.5236 11.081 10.6276 10.2998 11.1056ZM16.8899 32.0263C16.6227 32.0209 15.5677 21.5811 15.5677 21.5811L13.993 21.6231C13.993 21.6231 14.5646 30.5844 13.5396 32.6362C13.5396 32.6362 15.7513 32.8185 16.8899 32.0263Z" fill="#FFCE3E"/>
<path fill-rule="evenodd" clip-rule="evenodd" d="M10.5649 32.1429C10.9957 32.7009 13.1291 32.9421 13.5682 32.6199C14.6938 31.7944 15.9088 22.5539 14.3537 21.6837L15.7316 21.5745C15.7316 21.5745 17.2317 10.3884 16.8679 11.2069C16.8679 11.2069 13.4416 10.1709 12.4941 10.5593C13.1054 14.0676 13.5442 17.9386 13.9853 21.6144L11.589 21.5568C11.589 21.5568 10.9657 32.8795 10.5649 32.1429Z" fill="#F5863C"/>
<path fill-rule="evenodd" clip-rule="evenodd" d="M11.6373 20.9747C13.2424 21.2582 14.5749 21.2646 16.198 21.105C16.169 21.8116 16.14 22.5182 16.111 23.2244C14.5486 23.0378 13.1531 22.9239 11.5014 23.0299C11.4951 22.3273 11.5054 21.6767 11.6373 20.9747Z" fill="#3C489A"/>
<path fill-rule="evenodd" clip-rule="evenodd" d="M15.7847 21.0011L18.7789 19.43L18.1886 20.8638L19.8673 21.2606L16.4989 22.1304L19.4871 22.6028L18.1419 23.0532L19.0021 23.991L15.6924 23.2101C15.6924 23.2101 15.9949 22.2044 15.7847 21.0011Z" fill="#3C489A"/>
<path fill-rule="evenodd" clip-rule="evenodd" d="M14.474 20.2011C13.4939 20.1638 12.6667 20.9333 12.626 21.9197C12.5857 22.9061 13.3473 23.7363 14.3274 23.7736C15.3078 23.8113 16.135 23.0421 16.1756 22.0553C16.2159 21.0689 15.454 20.2387 14.474 20.2011Z" fill="#EE3C41"/>
<path fill-rule="evenodd" clip-rule="evenodd" d="M12.6246 21.9708C12.614 22.9329 13.3655 23.7331 14.3276 23.7697C15.2894 23.8067 16.1039 23.0665 16.1722 22.1064L12.6246 21.9708Z" fill="#CF3539"/>
<path fill-rule="evenodd" clip-rule="evenodd" d="M14.8549 20.8297C14.3395 20.81 13.9048 21.2141 13.8831 21.7331C13.8621 22.2515 14.2626 22.6879 14.7776 22.7076C15.2929 22.7272 15.728 22.3228 15.7493 21.8041C15.7707 21.2854 15.3699 20.8493 14.8549 20.8297Z" fill="#C2344A"/>
<path fill-rule="evenodd" clip-rule="evenodd" d="M6.33944 6.7794L24.3371 5.72668C23.8861 8.20522 23.8541 9.79628 21.2363 9.95485L3.20062 11.0096L2.71191 11.0382C2.85583 8.26785 3.67235 6.93531 6.33944 6.7794Z" fill="#3C489A"/>
</svg>
